<svg height="512" viewBox="0 0 512 512" width="512" xmlns="http://www.w3.org/2000/svg" xmlns:xlink="http://www.w3.org/1999/xlink"><linearGradient id="linear-gradient" gradientUnits="userSpaceOnUse" x1="105.026" x2="379.916" y1="416.18" y2="141.291"><stop offset="0" stop-color="#41dfd0"/><stop offset="1" stop-color="#ee83ef"/></linearGradient><g id="gradient"><path d="m359.009 258.751-6.369-2.321v-34.41l4.016-4.658a41.209 41.209 0 0 0 -24.236-67.526l-33.326-5.721a8 8 0 0 0 -6.159 1.489c-.551.414-1.069.856-1.586 1.3a7.985 7.985 0 0 0 -8.794-11.312l-10.855 2.223a117.422 117.422 0 0 0 -62.47 35.085l3.017-33.665 53.1-40.58a46.042 46.042 0 0 0 17.54-43.755 39.135 39.135 0 0 0 -67.749-20.117l-1.5 1.671-1.184-1.912a39.135 39.135 0 0 0 -70.246 7.75 46.04 46.04 0 0 0 9.484 46.175l44.657 48.961-2.534 28.279a139.343 139.343 0 0 0 -48.16-49.909 8 8 0 0 0 -11.655 9.733l19.72 50.206a123.648 123.648 0 0 1 7.832 31.844l1.448 13.342-30.121-2.7a24.007 24.007 0 0 0 -12.079 45.759 528.309 528.309 0 0 0 4.812 122.291l.3 1.946a8 8 0 0 0 7.189 6.729l81.029 7.262-25.128 50.209a7.956 7.956 0 0 0 -.607 1.64l-8 32a8 8 0 0 0 7.765 9.941h56a8 8 0 0 0 7.59-5.47l7.589-22.768 14.919-19.892 18.549 43.281a8 8 0 0 0 7.353 4.849h64a8 8 0 0 0 6.861-12.116l-23.243-38.737-6.7-37.648c.964-.359 1.922-.739 2.868-1.169a43.722 43.722 0 0 0 24.3-28.769l13.239-54.061c0-.011 2.476-27.322 2.476-27.322a37.844 37.844 0 0 0 -24.952-37.427zm8.968 36.7-.781 17.174-42.986-3.67a7.993 7.993 0 0 0 -8.51 6.325l-5.355 25.489-52.124-22.524c2.508-13.693 4.489-27.578 5.908-41.431a24 24 0 0 0 17.461-17.769h32.283l39.658 14.736a21.91 21.91 0 0 1 14.446 21.673zm-67.7-101.16 22.386.263v8.573a8 8 0 0 0 1.988 5.278l11.987 13.654v28.384l-17.111-6.366v-7.032a8 8 0 0 0 -4.765-7.318l-7.335-3.242a12 12 0 0 1 -7.15-10.975zm-.066-33.752 29.5 5.063a25.208 25.208 0 0 1 14.872 41.254l-5.92-6.743v-13.464a8 8 0 0 0 -7.906-8l-33.033-.386-.44-1.1a16.079 16.079 0 0 1 2.929-16.621zm-14.07-7.943a32.094 32.094 0 0 0 -3.717 30.494l1.853 4.644v27.776a28.015 28.015 0 0 0 16.681 25.61l2.569 1.136v.789h-23.727a24.012 24.012 0 0 0 -19.429-13.4l-31.441-2.817a77.128 77.128 0 0 1 22.408-40.978zm-30.253 6.775-15.608 14.911a93.129 93.129 0 0 0 -27.37 51.111l-1.345-.12a140.07 140.07 0 0 0 -3.661-23.987 101.4 101.4 0 0 1 47.986-41.912zm-98.571-111.828a23.1 23.1 0 0 1 21.83-15.543q1.038 0 2.089.094a23.251 23.251 0 0 1 17.609 10.869l6.8 10.983a8 8 0 0 0 12.749 1.143l8.639-9.6a23.135 23.135 0 0 1 40.047 11.891 30.055 30.055 0 0 1 -11.451 28.56l-49.845 38.094-42.276-46.349a30.054 30.054 0 0 1 -6.191-30.142zm20.144 158.313a139.578 139.578 0 0 0 -8.846-35.968l-8.958-22.807a122.9 122.9 0 0 1 35.765 76.748l-16.17-1.449zm-54.691 35.557a8 8 0 0 1 7.954-7.286c.241 0 128.216 11.458 128.216 11.458a8 8 0 1 1 -1.428 15.936l-127.489-11.421a8 8 0 0 1 -7.253-8.683zm13.856 25.338 111.427 9.986q-.84 7.947-1.933 15.892l-7.4-.663a7.953 7.953 0 0 0 -8.683 8.568 7.913 7.913 0 0 0 -.845.678l-5.208 4.885-12.21-1.71a7.97 7.97 0 0 0 -2.518.05 8 8 0 0 0 -2.408-15.328l-7.969-.713a8 8 0 1 0 -1.428 15.935l7.969.714q.365.033.723.033a7.907 7.907 0 0 0 1.4-.128 7.993 7.993 0 0 0 -4.77 6.044l-1.71 10.264a8 8 0 0 0 -2.373 14.242l-1.306 7.837a8 8 0 0 0 5.716 9.014l28.963 8.187c-2.478 8.885-5.2 17.756-8.152 26.488l-83.138-7.451a512.346 512.346 0 0 1 -4.147-112.824zm109.981 101.169 36.7 23.4-42.893-3.253q3.292-10.002 6.193-20.147zm103.423 112.08h-44.594l-21.922-51.151a8 8 0 0 0 -13.754-1.649l-24 32a8.024 8.024 0 0 0 -1.19 2.27l-6.17 18.53h-39.994l5.3-21.207 27.707-55.362 93.956 7.125 6.913 38.845a8.02 8.02 0 0 0 1.016 2.715zm2.742-106.521a27.888 27.888 0 0 1 -41.96 16.4l-65.822-41.965a7.978 7.978 0 0 0 -2.125-.953l-28.521-8.061 2.93-17.585 8.282 1.16a8.009 8.009 0 0 0 6.582-2.087l2.062-1.936 9.031 9.969a8.013 8.013 0 0 0 2.755 1.973l67 28.952a8 8 0 0 0 11-5.7l5.914-28.146 34.745 2.966zm-187.193-72-7.968-.714a8 8 0 1 1 1.428-15.936l7.968.714a8 8 0 0 1 -.705 15.969q-.359-.005-.723-.038zm21.762 26.047a8 8 0 0 1 -7.959 7.287c-.238 0-.48-.011-.723-.034l-7.969-.713a8 8 0 0 1 1.428-15.936l7.969.714a8 8 0 0 1 7.254 8.677z" fill="url(#linear-gradient)"/></g></svg>